<svg xmlns="http://www.w3.org/2000/svg" viewBox="0 0 64 64">
  <rect width="64" height="64" rx="14" fill="#e11d48"/>
  <path
    d="M20.5 22.5c-3.6 0-6.5 2.9-6.5 6.5 0 7.4 10.3 14.9 16.1 18.5a3.6 3.6 0 0 0 3.8 0C39.7 43.9 50 36.4 50 29c0-3.6-2.9-6.5-6.5-6.5-2.7 0-5 1.6-6 3.9l-1.3 2.7-1.3-2.7c-1-2.3-3.3-3.9-6-3.9-2.1 0-4 1-5.2 2.5-1.2-1.5-3.1-2.5-5.2-2.5z"
    fill="#fff"
    opacity=".94"
  />
  <path
    d="M17.5 35.5h8.7l3.1-5.2 5.5 10.1 3.3-4.9h8.4"
    fill="none"
    stroke="#fff"
    stroke-width="4"
    stroke-linecap="round"
    stroke-linejoin="round"
  />
</svg>
